<svg fill="#de9447" width="20" height="20" xmlns="http://www.w3.org/2000/svg" viewBox="0 0 448.001 448.001"><path d="M278.881 208.001h57.12c17.673 0 32-14.327 32-32s-14.327-32-32-32h-16a108.476 108.476 0 00-4.48-80c-19.08-39.315-59.02-64.2-102.72-64h-21.76a119.36 119.36 0 00-88 43.68c-11.163 13.701-9.105 33.858 4.596 45.021 13.617 11.095 33.632 9.139 44.844-4.381a55.838 55.838 0 0143.04-20.32h16a49.76 49.76 0 0145.92 26.88 50.08 50.08 0 01-7.84 51.84l-1.12 1.28h-104.48c-17.673 0-32 14.327-32 32s14.327 32 32 32h51.68l-26.72 32h-56.96c-17.673 0-32 14.327-32 32 0 17.673 14.327 32 32 32h15.2a108.64 108.64 0 004 76.32c18.66 40.556 58.885 66.854 103.52 67.68h21.28a116.481 116.481 0 0088.16-42.72c10.087-14.512 6.5-34.453-8.012-44.54-12.33-8.571-28.962-7.414-39.988 2.78a53.122 53.122 0 01-43.2 20.48h-16a51.52 51.52 0 01-46.56-29.44 46.08 46.08 0 018.16-49.28l80.32-97.28z"/><path d="M304.001 240.001h-32c-17.673 0-32 14.327-32 32 0 17.673 14.327 32 32 32h32c17.673 0 32-14.327 32-32 0-17.673-14.327-32-32-32z"/></svg>