<svg width="42" height="42" viewBox="0 0 64 64" xmlns="http://www.w3.org/2000/svg"><g data-name="pizza delivery"><path d="M25 53a8 8 0 01-16 0m12 0a4 4 0 01-8 0m42 0a4 4 0 01-8 0m-4 0a8 8 0 0016 0" fill="none" stroke="#0a1c28" stroke-linejoin="round" stroke-width="2"/><path d="M43 31a2 2 0 00-2 2c2.76 0 5 4 5 9 0 3.87-2.24 6-5 6h-6c-3.31 0-6-2.24-6-5s2.69-5 6-5v-2H16C8.82 36 3 43.16 3 52v1h40c4.42 0 8-4.92 8-11s-3.58-11-8-11" fill="none" stroke="#0a1c28" stroke-linecap="round" stroke-linejoin="round" stroke-width="2"/><path d="M18 36a2 2 0 010-4h13a2 2 0 010 4z" fill="#0a1c28"/><path fill="none" stroke="#0a1c28" stroke-linecap="round" stroke-linejoin="round" stroke-width="2" d="M3 36h13"/><path d="M6 53c0-6.63 4.92-12 11-12s11 5.37 11 12m13 0h20a9 9 0 00-9-9h-1m0-21h-1c-3.31 0-6 1.79-6 4s2.69 4 6 4h1" fill="none" stroke="#0a1c28" stroke-linejoin="round" stroke-width="2"/><ellipse cx="51" cy="27" rx="2" ry="4" fill="none" stroke="#0a1c28" stroke-linejoin="round" stroke-width="2"/><path d="M41 33v-4a2 2 0 012-2h1" fill="none" stroke="#0a1c28" stroke-linejoin="round" stroke-width="2"/><path fill="none" stroke="#0a1c28" stroke-linecap="round" stroke-linejoin="round" stroke-width="2" d="M46 27h-7M14 49h6m-4-4h2"/><path fill="none" stroke="#0a1c28" stroke-linejoin="round" stroke-width="2" d="M26 22v11M5 27v9m27-19h-4v3a2 2 0 01-4 0 1 1 0 00-2 0v3a2 2 0 01-4 0V3a14 14 0 0114 14z"/><circle cx="22" cy="8" r="1" fill="#0a1c28"/><circle cx="26" cy="12" r="2" fill="#0a1c28"/><path fill="none" stroke="#0a1c28" stroke-linecap="round" stroke-miterlimit="10" stroke-width="2" d="M22 14v1"/><path d="M25 21a11 11 0 11-11-11v11h4" fill="none" stroke="#0a1c28" stroke-linejoin="round" stroke-width="2"/><circle cx="8" cy="23" r="2" fill="#0a1c28"/><circle cx="9" cy="17" r="1" fill="#0a1c28"/><path fill="none" stroke="#0a1c28" stroke-linecap="round" stroke-miterlimit="10" stroke-width="2" d="M12 26v1"/><circle cx="16" cy="28" r="1" fill="#0a1c28"/></g></svg>