<svg width="42" height="42" data-name="Layer 3" viewBox="0 0 64 64" xmlns="http://www.w3.org/2000/svg"><path d="M17 15a4 4 0 004-4V3h-8v8a4 4 0 004 4zm33.67 36.52a1 1 0 01-1.34 0 2 2 0 00-2.66 0 1 1 0 01-1.34 0 2 2 0 00-2.66 0 1 1 0 01-1.34 0 2 2 0 00-2.66 0 1 1 0 01-1.34 0A2 2 0 0036 51a2 2 0 000 4h16a2 2 0 000-4 2 2 0 00-1.33.52z"/><path d="M5 16.65V51h2V26a1 1 0 011-1h16a1 1 0 011 1v25h7.56A4 4 0 0136 49a3.94 3.94 0 012 .55 4 4 0 014 0 4 4 0 014 0 4 4 0 014 0 3.94 3.94 0 012-.55 4 4 0 013.44 2H59V16.65a6 6 0 01-7-2.34 6 6 0 01-10 0 6 6 0 01-10 0 6 6 0 01-10 0 6 6 0 01-10 0 6 6 0 01-7 2.34zm37 29.76l-1.29 1.3-1.42-1.42 1.3-1.29a1.42 1.42 0 000-2l-.59-.59a3.4 3.4 0 010-4.82l1.29-1.3 1.42 1.42-1.3 1.29a1.42 1.42 0 000 2l.59.59a3.4 3.4 0 010 4.82zm6 0l-1.29 1.3-1.42-1.42 1.3-1.29a1.42 1.42 0 000-2l-.59-.59a3.4 3.4 0 010-4.82l1.29-1.3 1.42 1.42-1.3 1.29a1.42 1.42 0 000 2l.59.59a3.4 3.4 0 010 4.82zM29 22a1 1 0 011-1h26a1 1 0 011 1v20a1 1 0 01-1 1h-5.25v-2H55V23H31v18h6v2h-7a1 1 0 01-1-1z"/><path d="M27 15a4 4 0 004-4V3h-8v8a4 4 0 004 4zm20 0a4 4 0 004-4V3h-8v8a4 4 0 004 4zm-10 0a4 4 0 004-4V3h-8v8a4 4 0 004 4zM53 3v8a4 4 0 008 0V3zm8 52v-2h-5a3.91 3.91 0 01-.56 2zm-25 6h16a5 5 0 004.9-4H31.1a5 5 0 004.9 4zM23 51V27H9v24zM11 33h2v6h-2zm21.56 22a3.91 3.91 0 01-.56-2H3v2zM7 15a4 4 0 004-4V3H3v8a4 4 0 004 4z"/></svg>